<mxfile host="Electron" agent="Mozilla/5.0 (Windows NT 10.0; Win64; x64) AppleWebKit/537.36 (KHTML, like Gecko) draw.io/24.7.17 Chrome/128.0.6613.36 Electron/32.0.1 Safari/537.36" version="24.7.17">
  <diagram name="Page-1" id="CDoGKNs6hvwvQWhjGiZM">
    <mxGraphModel dx="1195" dy="697" grid="1" gridSize="10" guides="1" tooltips="1" connect="1" arrows="1" fold="1" page="1" pageScale="1" pageWidth="827" pageHeight="1169" math="0" shadow="0">
      <root>
        <mxCell id="0" />
        <mxCell id="1" parent="0" />
        <mxCell id="_XnbHCLBr_6DEQNN-mo2-28" value="" style="group" vertex="1" connectable="0" parent="1">
          <mxGeometry x="40" y="58" width="760" height="542" as="geometry" />
        </mxCell>
        <mxCell id="_XnbHCLBr_6DEQNN-mo2-1" value="&#xa;  ASP_GATAM_DEPLOYMENT_MAIN (Gitlab runner)Â " style="shape=image;verticalLabelPosition=bottom;labelBackgroundColor=default;verticalAlign=top;aspect=fixed;imageAspect=0;image=data:image/svg+xml,PHN2ZyB4bWxucz0iaHR0cDovL3d3dy53My5vcmcvMjAwMC9zdmciIHByZXNlcnZlQXNwZWN0UmF0aW89InhNaW5ZTWluIG1lZXQiIHZpZXdCb3g9IjAgMCAyNTYgMjM2IiBoZWlnaHQ9IjIzMDUiIHdpZHRoPSIyNTAwIj48cGF0aCBmaWxsPSIjRTI0MzI5IiBkPSJNMTI4LjA3NSAyMzYuMDc1bDQ3LjEwNC0xNDQuOTdIODAuOTdsNDcuMTA0IDE0NC45N3oiLz48cGF0aCBmaWxsPSIjRkM2RDI2IiBkPSJNMTI4LjA3NSAyMzYuMDc0TDgwLjk3IDkxLjEwNEgxNC45NTZsMTEzLjExOSAxNDQuOTd6Ii8+PHBhdGggZmlsbD0iI0ZDQTMyNiIgZD0iTTE0Ljk1NiA5MS4xMDRMLjY0MiAxMzUuMTZhOS43NTIgOS43NTIgMCAwIDAgMy41NDIgMTAuOTAzbDEyMy44OTEgOTAuMDEyLTExMy4xMi0xNDQuOTd6Ii8+PHBhdGggZmlsbD0iI0UyNDMyOSIgZD0iTTE0Ljk1NiA5MS4xMDVIODAuOTdMNTIuNjAxIDMuNzljLTEuNDYtNC40OTMtNy44MTYtNC40OTItOS4yNzUgMGwtMjguMzcgODcuMzE1eiIvPjxwYXRoIGZpbGw9IiNGQzZEMjYiIGQ9Ik0xMjguMDc1IDIzNi4wNzRsNDcuMTA0LTE0NC45N2g2Ni4wMTVsLTExMy4xMiAxNDQuOTd6Ii8+PHBhdGggZmlsbD0iI0ZDQTMyNiIgZD0iTTI0MS4xOTQgOTEuMTA0bDE0LjMxNCA0NC4wNTZhOS43NTIgOS43NTIgMCAwIDEtMy41NDMgMTAuOTAzbC0xMjMuODkgOTAuMDEyIDExMy4xMTktMTQ0Ljk3eiIvPjxwYXRoIGZpbGw9IiNFMjQzMjkiIGQ9Ik0yNDEuMTk0IDkxLjEwNWgtNjYuMDE1bDI4LjM3LTg3LjMxNWMxLjQ2LTQuNDkzIDcuODE2LTQuNDkyIDkuMjc1IDBsMjguMzcgODcuMzE1eiIvPjwvc3ZnPg==;" vertex="1" parent="_XnbHCLBr_6DEQNN-mo2-28">
          <mxGeometry x="271.6" width="86.8" height="80" as="geometry" />
        </mxCell>
        <mxCell id="_XnbHCLBr_6DEQNN-mo2-3" value="" style="swimlane;startSize=0;" vertex="1" parent="_XnbHCLBr_6DEQNN-mo2-28">
          <mxGeometry x="80" y="92" width="470" height="450" as="geometry" />
        </mxCell>
        <mxCell id="_XnbHCLBr_6DEQNN-mo2-4" value="docker-compose.yml" style="swimlane;whiteSpace=wrap;html=1;" vertex="1" parent="_XnbHCLBr_6DEQNN-mo2-3">
          <mxGeometry x="30" y="30" width="420" height="400" as="geometry" />
        </mxCell>
        <mxCell id="_XnbHCLBr_6DEQNN-mo2-6" value="MSSQL SERVER" style="shape=datastore;whiteSpace=wrap;html=1;" vertex="1" parent="_XnbHCLBr_6DEQNN-mo2-4">
          <mxGeometry x="60" y="250" width="60" height="60" as="geometry" />
        </mxCell>
        <mxCell id="_XnbHCLBr_6DEQNN-mo2-8" style="edgeStyle=orthogonalEdgeStyle;rounded=0;orthogonalLoop=1;jettySize=auto;html=1;entryX=1;entryY=0.5;entryDx=0;entryDy=0;" edge="1" parent="_XnbHCLBr_6DEQNN-mo2-4" source="_XnbHCLBr_6DEQNN-mo2-7" target="_XnbHCLBr_6DEQNN-mo2-6">
          <mxGeometry relative="1" as="geometry">
            <Array as="points">
              <mxPoint x="314" y="280" />
            </Array>
          </mxGeometry>
        </mxCell>
        <mxCell id="_XnbHCLBr_6DEQNN-mo2-7" value="webapi" style="rounded=0;whiteSpace=wrap;html=1;" vertex="1" parent="_XnbHCLBr_6DEQNN-mo2-4">
          <mxGeometry x="254" y="170" width="120" height="60" as="geometry" />
        </mxCell>
        <mxCell id="_XnbHCLBr_6DEQNN-mo2-15" style="edgeStyle=orthogonalEdgeStyle;rounded=0;orthogonalLoop=1;jettySize=auto;html=1;entryX=0.5;entryY=0;entryDx=0;entryDy=0;" edge="1" parent="_XnbHCLBr_6DEQNN-mo2-4" source="_XnbHCLBr_6DEQNN-mo2-12" target="_XnbHCLBr_6DEQNN-mo2-13">
          <mxGeometry relative="1" as="geometry" />
        </mxCell>
        <mxCell id="_XnbHCLBr_6DEQNN-mo2-17" value="beheer.domain.com/" style="edgeLabel;html=1;align=center;verticalAlign=middle;resizable=0;points=[];" vertex="1" connectable="0" parent="_XnbHCLBr_6DEQNN-mo2-15">
          <mxGeometry x="-0.2" y="-1" relative="1" as="geometry">
            <mxPoint as="offset" />
          </mxGeometry>
        </mxCell>
        <mxCell id="_XnbHCLBr_6DEQNN-mo2-16" style="edgeStyle=orthogonalEdgeStyle;rounded=0;orthogonalLoop=1;jettySize=auto;html=1;entryX=0;entryY=0.5;entryDx=0;entryDy=0;" edge="1" parent="_XnbHCLBr_6DEQNN-mo2-4" source="_XnbHCLBr_6DEQNN-mo2-12" target="_XnbHCLBr_6DEQNN-mo2-14">
          <mxGeometry relative="1" as="geometry" />
        </mxCell>
        <mxCell id="_XnbHCLBr_6DEQNN-mo2-22" value="leren.domain.com/" style="edgeLabel;html=1;align=center;verticalAlign=middle;resizable=0;points=[];" vertex="1" connectable="0" parent="_XnbHCLBr_6DEQNN-mo2-16">
          <mxGeometry x="-0.4552" relative="1" as="geometry">
            <mxPoint x="20" as="offset" />
          </mxGeometry>
        </mxCell>
        <mxCell id="_XnbHCLBr_6DEQNN-mo2-18" style="edgeStyle=orthogonalEdgeStyle;rounded=0;orthogonalLoop=1;jettySize=auto;html=1;entryX=0;entryY=0.5;entryDx=0;entryDy=0;" edge="1" parent="_XnbHCLBr_6DEQNN-mo2-4" source="_XnbHCLBr_6DEQNN-mo2-12" target="_XnbHCLBr_6DEQNN-mo2-7">
          <mxGeometry relative="1" as="geometry">
            <Array as="points">
              <mxPoint x="202" y="90" />
              <mxPoint x="202" y="200" />
            </Array>
          </mxGeometry>
        </mxCell>
        <mxCell id="_XnbHCLBr_6DEQNN-mo2-19" value="api.domain.com/winchester/" style="edgeLabel;html=1;align=center;verticalAlign=middle;resizable=0;points=[];" vertex="1" connectable="0" parent="_XnbHCLBr_6DEQNN-mo2-18">
          <mxGeometry x="-0.1121" y="-1" relative="1" as="geometry">
            <mxPoint x="39" y="17" as="offset" />
          </mxGeometry>
        </mxCell>
        <mxCell id="_XnbHCLBr_6DEQNN-mo2-12" value="NGINX PROXY&lt;br&gt;80 / 443" style="rounded=0;whiteSpace=wrap;html=1;" vertex="1" parent="_XnbHCLBr_6DEQNN-mo2-4">
          <mxGeometry x="30" y="40" width="120" height="60" as="geometry" />
        </mxCell>
        <mxCell id="_XnbHCLBr_6DEQNN-mo2-20" style="edgeStyle=orthogonalEdgeStyle;rounded=0;orthogonalLoop=1;jettySize=auto;html=1;entryX=0;entryY=0.5;entryDx=0;entryDy=0;" edge="1" parent="_XnbHCLBr_6DEQNN-mo2-4" source="_XnbHCLBr_6DEQNN-mo2-13" target="_XnbHCLBr_6DEQNN-mo2-7">
          <mxGeometry relative="1" as="geometry" />
        </mxCell>
        <mxCell id="_XnbHCLBr_6DEQNN-mo2-13" value="webappbegeleider" style="rounded=0;whiteSpace=wrap;html=1;" vertex="1" parent="_XnbHCLBr_6DEQNN-mo2-4">
          <mxGeometry x="30" y="170" width="120" height="60" as="geometry" />
        </mxCell>
        <mxCell id="_XnbHCLBr_6DEQNN-mo2-21" style="edgeStyle=orthogonalEdgeStyle;rounded=0;orthogonalLoop=1;jettySize=auto;html=1;entryX=0.75;entryY=0;entryDx=0;entryDy=0;" edge="1" parent="_XnbHCLBr_6DEQNN-mo2-4" source="_XnbHCLBr_6DEQNN-mo2-14" target="_XnbHCLBr_6DEQNN-mo2-7">
          <mxGeometry relative="1" as="geometry">
            <Array as="points">
              <mxPoint x="344" y="120" />
              <mxPoint x="344" y="120" />
            </Array>
          </mxGeometry>
        </mxCell>
        <mxCell id="_XnbHCLBr_6DEQNN-mo2-14" value="webappvolger" style="rounded=0;whiteSpace=wrap;html=1;" vertex="1" parent="_XnbHCLBr_6DEQNN-mo2-4">
          <mxGeometry x="260" y="40" width="120" height="60" as="geometry" />
        </mxCell>
        <mxCell id="_XnbHCLBr_6DEQNN-mo2-9" value="AUTH0 Management API" style="rounded=0;whiteSpace=wrap;html=1;" vertex="1" parent="_XnbHCLBr_6DEQNN-mo2-28">
          <mxGeometry x="630" y="352" width="120" height="60" as="geometry" />
        </mxCell>
        <mxCell id="_XnbHCLBr_6DEQNN-mo2-27" style="edgeStyle=orthogonalEdgeStyle;rounded=0;orthogonalLoop=1;jettySize=auto;html=1;entryX=0;entryY=0.5;entryDx=0;entryDy=0;" edge="1" parent="_XnbHCLBr_6DEQNN-mo2-28" source="_XnbHCLBr_6DEQNN-mo2-26" target="_XnbHCLBr_6DEQNN-mo2-12">
          <mxGeometry relative="1" as="geometry" />
        </mxCell>
        <mxCell id="_XnbHCLBr_6DEQNN-mo2-26" value="" style="verticalLabelPosition=bottom;html=1;verticalAlign=top;align=center;strokeColor=none;fillColor=#00BEF2;shape=mxgraph.azure.cloud;" vertex="1" parent="_XnbHCLBr_6DEQNN-mo2-28">
          <mxGeometry y="175.75" width="50" height="32.5" as="geometry" />
        </mxCell>
        <mxCell id="_XnbHCLBr_6DEQNN-mo2-29" style="edgeStyle=orthogonalEdgeStyle;rounded=0;orthogonalLoop=1;jettySize=auto;html=1;entryX=0;entryY=0.5;entryDx=0;entryDy=0;" edge="1" parent="_XnbHCLBr_6DEQNN-mo2-28" source="_XnbHCLBr_6DEQNN-mo2-7" target="_XnbHCLBr_6DEQNN-mo2-9">
          <mxGeometry relative="1" as="geometry">
            <Array as="points">
              <mxPoint x="424" y="382" />
            </Array>
          </mxGeometry>
        </mxCell>
        <mxCell id="_XnbHCLBr_6DEQNN-mo2-23" value="" style="verticalLabelPosition=bottom;html=1;verticalAlign=top;align=center;strokeColor=none;fillColor=#00BEF2;shape=mxgraph.azure.cloud;" vertex="1" parent="_XnbHCLBr_6DEQNN-mo2-28">
          <mxGeometry x="560" y="365.75" width="50" height="32.5" as="geometry" />
        </mxCell>
      </root>
    </mxGraphModel>
  </diagram>
</mxfile>
